<?xml version="1.0" encoding="UTF-8" standalone="no"?>
<!-- Created with Inkscape (http://www.inkscape.org/) -->

<svg
   width="500"
   height="500"
   viewBox="0 0 132.29166 132.29167"
   version="1.1"
   id="svg5"
   sodipodi:docname="Banner.svg"
   inkscape:version="1.2.2 (b0a8486541, 2022-12-01)"
   xml:space="preserve"
   inkscape:export-filename="Banner.png"
   inkscape:export-xdpi="192"
   inkscape:export-ydpi="192"
   xmlns:inkscape="http://www.inkscape.org/namespaces/inkscape"
   xmlns:sodipodi="http://sodipodi.sourceforge.net/DTD/sodipodi-0.dtd"
   xmlns="http://www.w3.org/2000/svg"
   xmlns:svg="http://www.w3.org/2000/svg"><sodipodi:namedview
     id="namedview7"
     pagecolor="#505050"
     bordercolor="#ffffff"
     borderopacity="1"
     inkscape:showpageshadow="0"
     inkscape:pageopacity="0"
     inkscape:pagecheckerboard="1"
     inkscape:deskcolor="#505050"
     inkscape:document-units="mm"
     showgrid="false"
     inkscape:zoom="0.75014032"
     inkscape:cx="-7.9985036"
     inkscape:cy="421.92106"
     inkscape:window-width="1920"
     inkscape:window-height="1024"
     inkscape:window-x="0"
     inkscape:window-y="0"
     inkscape:window-maximized="1"
     inkscape:current-layer="layer1" /><defs
     id="defs2"><rect
       x="32.156072"
       y="193.75365"
       width="435.5455"
       height="112.5"
       id="rect12016" /><inkscape:path-effect
       effect="fill_between_many"
       method="originald"
       linkedpaths="#path2813,0,1|#path2816,0,1|#path2819,0,1|#path2822,0,1|#path2825,0,1"
       id="path-effect2837" /><inkscape:path-effect
       effect="fill_between_many"
       method="originald"
       linkedpaths="#path2813,0,1"
       id="path-effect2837-6" /><inkscape:path-effect
       effect="fill_between_many"
       method="originald"
       linkedpaths="#path2813,0,1"
       id="path-effect2837-7" /><inkscape:path-effect
       effect="fill_between_many"
       method="originald"
       linkedpaths="#path2813,0,1"
       id="path-effect2837-7-3"
       is_visible="true"
       lpeversion="0"
       join="true"
       close="true"
       autoreverse="true" /><rect
       x="32.156071"
       y="193.75365"
       width="435.5455"
       height="112.5"
       id="rect12016-0" /><rect
       x="32.156071"
       y="193.75365"
       width="435.5455"
       height="112.5"
       id="rect12016-9" /><rect
       x="32.156071"
       y="193.75365"
       width="435.5455"
       height="112.5"
       id="rect12016-9-2" /></defs><g
     inkscape:label="Layer 1"
     inkscape:groupmode="layer"
     id="layer1"><rect
       style="fill:#f5e8b7;fill-opacity:1;stroke:none;stroke-width:0.264583;stroke-opacity:1"
       id="rect5685"
       width="132.29167"
       height="132.29167"
       x="0"
       y="0" /><path
       inkscape:original-d="M 0,0"
       inkscape:path-effect="#path-effect2837-7-3"
       d="M 0,0"
       id="path2839"
       class="UnoptimicedTransforms"
       style="fill:#ffffff;fill-opacity:1"
       transform="translate(45.410414,13.840043)" /><text
       xml:space="preserve"
       transform="matrix(0.81694161,0,0,0.91045138,8.0937874,-74.936756)"
       id="text12014-6"
       style="white-space:pre;shape-inside:url(#rect12016-0);display:inline;fill:#c1d8c3;fill-opacity:1;stroke:#000000;stroke-width:0.15477;stroke-dasharray:none;stroke-opacity:1" /><path
       id="path3431"
       style="fill:#cd5c08;fill-opacity:1;stroke:none;stroke-width:0.261464;stroke-opacity:1"
       d="M 33.072917,7.4868849 -3.3333334e-6,66.145836 33.072917,124.80478 H 99.218758 L 132.29167,66.145836 99.218758,7.4868849 Z m 3.288821,5.7975781 59.421849,0.06615 L 125.43899,66.079695 95.671554,118.74262 36.249706,118.67652 6.5942933,65.947443 Z" /><path
       id="path5456"
       style="fill:#6a9c89;fill-opacity:1;stroke:none;stroke-width:0.26275;stroke-opacity:1"
       d="m 16.66359,22.420853 v 91.619737 l 98.76606,-10e-6 V 22.420853 Z m 5.16465,4.638223 88.53321,0.08946 -0.0964,82.127294 -88.533209,-0.0894 z" /><path
       id="path5466"
       style="fill:#c1d8c3;fill-opacity:1;stroke:none;stroke-width:0.264583;stroke-opacity:1"
       inkscape:transform-center-y="-16.933333"
       d="M 66.14584,15.345833 7.4868889,116.94583 H 124.80478 Z m -0.09922,7.07502 52.79523,91.215107 -105.392023,0.1142 z" /><g
       id="g5857"
       transform="matrix(0.40469536,0,0,0.40469536,96.277648,66.246872)"
       inkscape:export-filename="Banner.png"
       inkscape:export-xdpi="96"
       inkscape:export-ydpi="96"><g
         id="g5847"><path
           id="path2813-7"
           style="fill:#cd5c08;fill-opacity:1;stroke-width:0.264583"
           class="UnoptimicedTransforms"
           d="M 48.466809,2.4515299 A 66.145836,66.145836 0 0 0 19.82463,18.987988 l 8.623246,14.936556 A 49.609371,49.609375 0 0 1 57.090055,17.387569 Z M 103.85154,98.381075 A 49.609371,49.609375 0 0 1 75.208846,114.9165 l 8.636165,14.95774 a 66.145836,66.145836 0 0 0 28.643209,-16.53439 z"
           transform="matrix(0.89999998,0,0,0.89999998,-134.24137,-24.532591)" /><path
           id="path2813-5"
           style="fill:#cd5c08;fill-opacity:1;stroke-width:0.264583"
           class="UnoptimicedTransforms"
           d="M 2.1456055,49.609375 A 66.145836,66.145836 0 0 0 0,66.145833 66.145836,66.145836 0 0 0 2.1456055,82.682292 H 19.392615 A 49.609371,49.609375 0 0 1 16.536458,66.145833 49.609371,49.609375 0 0 1 19.392615,49.609375 Z m 110.7663645,0 a 49.609371,49.609375 0 0 1 2.84324,16.536458 49.609371,49.609375 0 0 1 -2.84324,16.536459 h 17.27595 a 66.145836,66.145836 0 0 0 2.10375,-16.536459 66.145836,66.145836 0 0 0 -2.14561,-16.536458 z"
           transform="matrix(-0.89999998,0,0,-0.89999998,-15.169454,94.546219)" /><path
           id="path2813-5-6"
           style="fill:#cd5c08;fill-opacity:1;stroke-width:0.264583"
           class="UnoptimicedTransforms"
           d="M 2.1456055,49.609375 A 66.145836,66.145836 0 0 0 0,66.145833 66.145836,66.145836 0 0 0 2.1456055,82.682292 H 19.392615 A 49.609371,49.609375 0 0 1 16.536458,66.145833 49.609371,49.609375 0 0 1 19.392615,49.609375 Z m 110.7663645,0 a 49.609371,49.609375 0 0 1 2.84324,16.536458 49.609371,49.609375 0 0 1 -2.84324,16.536459 h 17.27595 a 66.145836,66.145836 0 0 0 2.10375,-16.536459 66.145836,66.145836 0 0 0 -2.14561,-16.536458 z"
           transform="matrix(0.44999999,-0.77942285,0.77942285,0.44999999,-156.03603,56.796764)" /><path
           id="path2816-3-5"
           style="fill:#cd5c08;fill-opacity:1;stroke-width:0.396874"
           class="UnoptimicedTransforms"
           d="M 66.145835,41.341159 A 24.804689,24.804687 0 0 0 41.341151,66.145844 24.804689,24.804687 0 0 0 66.145835,90.950528 24.804689,24.804687 0 0 0 90.95052,66.145844 24.804689,24.804687 0 0 0 66.145835,41.341159 Z m -0.196782,5.466049 A 19.348965,19.348966 74.999999 0 1 84.841275,61.147293 19.348965,19.348966 74.999999 0 1 71.159566,84.844656 19.348965,19.348966 74.999999 0 1 47.461922,71.162948 19.348965,19.348966 74.999999 0 1 61.14363,47.465585 19.348965,19.348966 74.999999 0 1 65.949053,46.807208 Z"
           transform="matrix(1.6000002,0,0,1.6000002,-180.54346,-70.836408)" /></g><g
         inkscape:label="Layer 1"
         id="layer1-2"
         transform="matrix(0.42066464,0,0,0.42066111,-102.5364,7.1719501)"
         style="fill:#6a9c89;fill-opacity:1;stroke:none;stroke-opacity:1"><path
           id="path2816-3"
           style="fill:#6a9c89;fill-opacity:1;stroke:none;stroke-width:0.396874;stroke-opacity:1"
           class="UnoptimicedTransforms"
           d="m 83.982916,-0.42228568 a 9.2597999,34.450959 15 0 0 -17.83703,30.79377168 34.450959,9.2597999 75 0 1 0.02413,0.08671 34.450959,9.2597999 75 0 1 2.421947,11.018923 24.804689,24.804687 1.1850706e-8 0 1 7.770781,2.086075 9.2597999,34.450959 45 0 1 7.606345,-8.33575 9.2597999,34.450959 45 0 1 0.06426,-0.06303 9.2597999,34.450959 15 0 0 -0.05043,-35.58670268 z m 0.05043,35.58670268 a 9.2597999,34.450959 15 0 1 -0.02275,0.08697 9.2597999,34.450959 15 0 1 -3.408419,10.744567 24.804689,24.804687 1.1850706e-8 0 1 5.695545,5.696282 9.2597999,34.450959 75 0 1 10.742293,-3.411132 9.2597999,34.450959 75 0 1 0.08734,-0.0223 9.2597999,34.450959 45 0 0 17.749605,-30.843946 9.2597999,34.450959 45 0 0 -30.843615,17.749553 z m 13.09401,13.094393 a 9.2597999,34.450959 45 0 1 -0.06336,0.06383 9.2597999,34.450959 45 0 1 -8.334096,7.609658 24.804689,24.804687 1.1850706e-8 0 1 2.085781,7.770711 34.450959,9.2597999 15 0 1 11.017529,2.418817 34.450959,9.2597999 15 0 1 0.0867,0.02379 9.2597999,34.450959 75 0 0 30.79389,-17.836438 9.2597999,34.450959 75 0 0 -35.586436,-0.05037 z m 4.792554,17.886803 a 9.2597999,34.450959 75 0 1 -0.0867,0.02413 9.2597999,34.450959 75 0 1 -11.005059,2.420091 24.804689,24.804687 1.1850706e-8 0 1 -2.08616,7.783576 34.450959,9.2597999 45 0 1 8.321964,7.595405 34.450959,9.2597999 45 0 1 0.06303,0.06426 34.450959,9.2597999 15 0 0 35.586695,-0.05044 34.450959,9.2597999 15 0 0 -30.79377,-17.83703 z m -4.792934,17.887465 a 34.450959,9.2597999 15 0 1 -0.08697,-0.02275 34.450959,9.2597999 15 0 1 -10.740546,-3.406785 24.804689,24.804687 1.1850706e-8 0 1 -5.698539,5.697728 34.450959,9.2597999 75 0 1 3.409229,10.738996 34.450959,9.2597999 75 0 1 0.02295,0.08696 34.450959,9.2597999 45 0 0 30.84395,17.749603 A 34.450959,9.2597999 45 0 0 97.126981,84.033078 Z M 84.033108,97.127227 a 34.450959,9.2597999 45 0 1 -0.06449,-0.06298 34.450959,9.2597999 45 0 1 -7.598127,-8.320975 24.804689,24.804687 1.1850706e-8 0 1 -7.783887,2.085036 9.2597999,34.450959 15 0 1 -2.416652,11.005302 9.2597999,34.450959 15 0 1 -0.02379,0.0867 34.450959,9.2597999 75 0 0 17.836578,30.79337 34.450959,9.2597999 75 0 0 0.05036,-35.586446 z M 66.146166,101.9203 a 34.450959,9.2597999 75 0 1 -0.02413,-0.0867 34.450959,9.2597999 75 0 1 -2.420091,-11.005048 24.804689,24.804687 1.1850706e-8 0 1 -7.783576,-2.08616 9.2597999,34.450959 45 0 1 -7.595405,8.321964 9.2597999,34.450959 45 0 1 -0.06426,0.06303 9.2597999,34.450959 15 0 0 0.05044,35.586704 9.2597999,34.450959 15 0 0 17.83703,-30.79377 z M 48.258701,97.127367 a 9.2597999,34.450959 15 0 1 0.02275,-0.08697 9.2597999,34.450959 15 0 1 3.406404,-10.741206 24.804689,24.804687 1.1850706e-8 0 1 -5.697727,-5.698538 9.2597999,34.450959 75 0 1 -10.738616,3.409888 9.2597999,34.450959 75 0 1 -0.08682,0.02244 A 9.2597999,34.450959 45 0 0 17.414566,114.87678 9.2597999,34.450959 45 0 0 48.258701,97.127367 Z M 35.164691,84.032974 a 9.2597999,34.450959 45 0 1 0.06284,-0.06397 9.2597999,34.450959 45 0 1 8.320594,-7.598786 24.804689,24.804687 1.1850706e-8 0 1 -2.085175,-7.783367 34.450959,9.2597999 15 0 1 -11.004635,-2.417033 34.450959,9.2597999 15 0 1 -0.08669,-0.02379 9.2597999,34.450959 75 0 0 -30.79389147,17.836438 9.2597999,34.450959 75 0 0 35.58696347,0.0505 z M 30.371619,66.146032 a 9.2597999,34.450959 75 0 1 0.08672,-0.02413 9.2597999,34.450959 75 0 1 11.018403,-2.422086 24.804689,24.804687 1.1850706e-8 0 1 2.086595,-7.770641 34.450959,9.2597999 45 0 1 -8.335751,-7.606345 34.450959,9.2597999 45 0 1 -0.06303,-0.06426 34.450959,9.2597999 15 0 0 -35.58670279,0.05044 34.450959,9.2597999 15 0 0 30.79377079,17.83703 z m 4.792932,-17.887465 a 34.450959,9.2597999 15 0 1 0.08697,0.02275 34.450959,9.2597999 15 0 1 10.744047,3.40828 24.804689,24.804687 1.1850706e-8 0 1 5.696802,-5.695406 34.450959,9.2597999 75 0 1 -3.410993,-10.742813 34.450959,9.2597999 75 0 1 -0.02244,-0.08682 34.450959,9.2597999 45 0 0 -30.844466,-17.749745 34.450959,9.2597999 45 0 0 17.750073,30.843755 z m 13.094393,-13.09401 a 34.450959,9.2597999 45 0 1 0.06397,0.06284 34.450959,9.2597999 45 0 1 7.608999,8.334477 24.804689,24.804687 1.1850706e-8 0 1 7.771231,-2.085641 9.2597999,34.450959 15 0 1 2.418957,-11.018052 9.2597999,34.450959 15 0 1 0.02379,-0.08669 A 34.450959,9.2597999 75 0 0 48.308789,-0.42202572 34.450959,9.2597999 75 0 0 48.258944,35.164557 Z m 15.444199,6.311674 a 9.2597999,34.450959 15 0 0 -0.228672,1.383768 23.426651,23.426649 89.999998 0 1 0.287033,-0.02507 23.426651,23.426649 59.999998 0 0 -7.159022,1.918097 23.426651,23.426649 29.999998 0 1 0.221524,-0.105042 34.450959,9.2597999 45 0 0 -0.892094,-1.086109 24.804689,24.804687 1.1850706e-8 0 0 -4.23954,2.432316 34.450959,9.2597999 75 0 0 0.496937,1.321286 23.426651,23.426649 59.999998 0 1 0.235188,-0.164354 23.426651,23.426649 29.999998 0 0 -5.263625,5.27258 23.426649,23.426651 89.999998 0 1 0.163252,-0.234899 34.450959,9.2597999 15 0 0 -1.328554,-0.499207 24.804689,24.804687 1.1850706e-8 0 0 -2.432237,4.239577 34.450959,9.2597999 45 0 0 1.08072,0.887545 23.426651,23.426649 29.999998 0 1 0.284576,-0.608652 23.426649,23.426651 89.999998 0 0 -2.06467,7.297808 23.426649,23.426651 59.999998 0 1 0.0031,-0.03651 9.2597999,34.450959 75 0 0 -1.390316,0.230449 24.804689,24.804687 1.1850706e-8 0 0 -0.13542,2.445862 24.804689,24.804687 1.1850706e-8 0 0 0.12163,2.441178 34.450959,9.2597999 15 0 0 1.397185,0.230595 23.426649,23.426651 89.999998 0 1 -0.02463,-0.282455 23.426649,23.426651 59.999998 0 0 1.916789,7.151426 23.426649,23.426651 29.999998 0 1 -0.10456,-0.219165 9.2597999,34.450959 45 0 0 -1.099611,0.902966 24.804689,24.804687 1.1850706e-8 0 0 2.442002,4.230432 9.2597999,34.450959 75 0 0 1.325483,-0.498042 23.426649,23.426651 59.999998 0 1 -0.168439,-0.24074 23.426649,23.426651 29.999998 0 0 5.269702,5.263968 23.426651,23.426649 89.999998 0 1 -0.227936,-0.158043 9.2597999,34.450959 15 0 0 -0.501083,1.331395 24.804689,24.804687 1.1850706e-8 0 0 4.230513,2.443183 9.2597999,34.450959 45 0 0 0.898485,-1.094507 23.426649,23.426651 29.999998 0 1 -0.59777,-0.279431 23.426651,23.426649 89.999998 0 0 7.284985,2.058448 23.426651,23.426649 59.999998 0 1 -0.03443,-0.0025 34.450959,9.2597999 75 0 0 0.232305,1.404188 24.804689,24.804687 1.1850706e-8 0 0 2.443867,0.122068 24.804689,24.804687 1.1850706e-8 0 0 2.440797,-0.122289 9.2597999,34.450959 15 0 0 0.230976,-1.396525 23.426651,23.426649 89.999998 0 1 -0.290951,0.02514 23.426651,23.426649 59.999998 0 0 7.15111,-1.91353 23.426651,23.426649 29.999998 0 1 -0.210214,0.100271 34.450959,9.2597999 45 0 0 0.902966,1.099611 24.804689,24.804687 1.1850706e-8 0 0 4.230432,-2.442001 34.450959,9.2597999 75 0 0 -0.498701,-1.325103 23.426651,23.426649 59.999998 0 1 -0.235187,0.164354 23.426651,23.426649 29.999998 0 0 5.26564,-5.275941 23.426649,23.426651 89.999998 0 1 -0.165268,0.23826 34.450959,9.2597999 15 0 0 1.332055,0.500702 24.804689,24.804687 1.1850706e-8 0 0 2.442523,-4.230132 34.450959,9.2597999 45 0 0 -1.094507,-0.898485 23.426651,23.426649 29.999998 0 1 -0.284576,0.608652 23.426649,23.426651 89.999998 0 0 2.06467,-7.297808 23.426649,23.426651 59.999998 0 1 -0.0031,0.03651 9.2597999,34.450959 75 0 0 1.403668,-0.232444 24.804689,24.804687 1.1850706e-8 0 0 0.122068,-2.443867 24.804689,24.804687 1.1850706e-8 0 0 -0.134526,-2.442962 34.450959,9.2597999 15 0 0 -1.384288,-0.228811 23.426649,23.426651 89.999998 0 1 0.02463,0.282455 23.426649,23.426651 59.999998 0 0 -1.916789,-7.151426 23.426649,23.426651 29.999998 0 1 0.10456,0.219165 9.2597999,34.450959 45 0 0 1.086109,-0.892094 24.804689,24.804687 1.1850706e-8 0 0 -2.432177,-4.24006 9.2597999,34.450959 75 0 0 -1.321806,0.496798 23.426649,23.426651 59.999998 0 1 0.164355,0.235187 23.426649,23.426651 29.999998 0 0 -5.270641,-5.262547 23.426651,23.426649 89.999998 0 1 0.233479,0.162314 9.2597999,34.450959 15 0 0 0.499068,-1.328034 24.804689,24.804687 1.1850706e-8 0 0 -4.239437,-2.432757 9.2597999,34.450959 45 0 0 -0.887545,1.08072 23.426649,23.426651 29.999998 0 1 0.60075,0.280787 23.426651,23.426649 89.999998 0 0 -7.288486,-2.059943 23.426651,23.426649 59.999998 0 1 0.03443,0.0025 34.450959,9.2597999 75 0 0 -0.229929,-1.390177 24.804689,24.804687 1.1850706e-8 0 0 -2.446243,-0.136079 24.804689,24.804687 1.1850706e-8 0 0 -2.442581,0.135186 z m 3.333823,1.257759 a 23.426651,23.426649 59.999998 0 0 -1.436629,-0.01268 23.426651,23.426649 89.999998 0 1 0.549337,-0.01609 23.426651,23.426649 89.999998 0 1 0.887292,0.02877 z m 10.573377,2.974121 a 23.426649,23.426651 29.999998 0 1 0.259061,0.139634 23.426649,23.426651 29.999998 0 1 0.744394,0.466399 23.426651,23.426649 89.999998 0 0 -1.003455,-0.606033 z m -6.509456,1.94391 A 19.14612,19.14612 0 0 1 84.639238,71.101133 19.14612,19.14612 0 0 1 61.190126,84.639484 19.14612,19.14612 0 0 1 47.651775,61.190372 19.14612,19.14612 0 0 1 71.100887,47.652021 Z M 55.101713,45.487198 a 23.426651,23.426649 29.999998 0 0 -1.135568,0.641996 23.426651,23.426649 59.999998 0 1 0.46259,-0.285097 23.426651,23.426649 59.999998 0 1 0.672978,-0.356899 z m 31.060111,8.478014 a 23.426649,23.426651 59.999998 0 1 0.285997,0.463389 23.426649,23.426651 59.999998 0 1 0.354615,0.669023 23.426649,23.426651 29.999998 0 0 -0.640612,-1.132412 z M 46.317649,53.671779 a 23.426649,23.426651 89.999998 0 0 -0.615171,1.018839 23.426651,23.426649 29.999998 0 1 0.14488,-0.268243 23.426651,23.426649 29.999998 0 1 0.470291,-0.750596 z M 89.570177,65.61012 a 23.426649,23.426651 89.999998 0 1 0.016,0.53928 23.426649,23.426651 89.999998 0 1 -0.02839,0.865101 23.426649,23.426651 59.999998 0 0 0.0124,-1.404381 z M 42.733751,65.277144 a 23.426649,23.426651 59.999998 0 0 -0.0124,1.404381 23.426649,23.426651 89.999998 0 1 -0.016,-0.53928 23.426649,23.426651 89.999998 0 1 0.02839,-0.865101 z m 43.854783,12.323743 a 23.426651,23.426649 29.999998 0 1 -0.14436,0.268383 23.426651,23.426649 29.999998 0 1 -0.45754,0.730049 23.426649,23.426651 89.999998 0 0 0.6019,-0.998432 z m -41.10058,-0.408843 a 23.426649,23.426651 29.999998 0 0 0.646842,1.142439 23.426649,23.426651 59.999998 0 1 -0.291085,-0.471439 23.426649,23.426651 59.999998 0 1 -0.355757,-0.671 z m 32.837433,8.970407 a 23.426651,23.426649 59.999998 0 1 -0.46259,0.285097 23.426651,23.426649 59.999998 0 1 -0.678252,0.359944 23.426651,23.426649 29.999998 0 0 1.140842,-0.645041 z M 53.680055,85.979238 a 23.426651,23.426649 89.999998 0 0 1.001654,0.604435 23.426649,23.426651 29.999998 0 1 -0.259061,-0.139633 23.426649,23.426651 29.999998 0 1 -0.742593,-0.464802 z m 13.013359,3.591131 a 23.426651,23.426649 89.999998 0 1 -0.551035,0.01619 23.426651,23.426649 89.999998 0 1 -0.889512,-0.0288 23.426651,23.426649 59.999998 0 0 1.440547,0.01261 z"
           transform="matrix(0.89001297,-0.23847826,0.23847826,0.89001297,-8.4853626,23.049574)" /><circle
           style="fill:#6a9c89;fill-opacity:1;stroke:none;stroke-width:0.264583;stroke-opacity:1"
           id="path3870"
           cx="66.159523"
           cy="66.145836"
           r="7.3672996" /></g></g></g></svg>
